<svg viewBox="0 0 2000 1000" xmlns="http://www.w3.org/2000/svg"><mask id="b" x="0" y="0" width="2000" height="1000"><path fill="url(#a)" d="M0 0h2000v1000H0z"/></mask><g style="transform-origin:center center" clip-rule="evenodd" fill="none" stroke="#61638d" stroke-width="1.8" mask="url(#b)"><path d="M52.5 30.604v60.55l52.497 30.277v-60.55L52.5 30.604ZM104.997 121.431 157.5 91.154v-60.55L104.997 60.88v60.55Z" stroke-width=".63"/><path d="M52.5 30.604 104.997.332 157.5 30.604 104.997 60.88 52.5 30.604ZM157.5 30.604v60.55l52.497 30.277v-60.55L157.5 30.604ZM209.997 121.431 262.5 91.154v-60.55L209.997 60.88v60.55Z" stroke-width=".63"/><path d="M157.5 30.604 209.997.332 262.5 30.604 209.997 60.88 157.5 30.604ZM262.5 30.604v60.55l52.497 30.277v-60.55L262.5 30.604ZM314.997 121.431 367.5 91.154v-60.55L314.997 60.88v60.55Z" stroke-width=".63"/><path d="M262.5 30.604 314.997.332 367.5 30.604 314.997 60.88 262.5 30.604ZM367.5 30.604v60.55l52.497 30.277v-60.55L367.5 30.604ZM419.997 121.431 472.5 91.154v-60.55L419.997 60.88v60.55Z" stroke-width=".63"/><path d="M367.5 30.604 419.997.332 472.5 30.604 419.997 60.88 367.5 30.604ZM472.5 30.604v60.55l52.497 30.277v-60.55L472.5 30.604ZM524.997 121.431 577.5 91.154v-60.55L524.997 60.88v60.55Z" stroke-width=".63"/><path d="M472.5 30.604 524.997.332 577.5 30.604 524.997 60.88 472.5 30.604ZM787.5 30.604v60.55l52.497 30.277v-60.55L787.5 30.604ZM839.997 121.431 892.5 91.154v-60.55L839.997 60.88v60.55Z" stroke-width=".63"/><path d="M787.5 30.604 839.997.332 892.5 30.604 839.997 60.88 787.5 30.604ZM892.5 30.604v60.55l52.497 30.277v-60.55L892.5 30.604ZM944.997 121.431 997.5 91.154v-60.55L944.997 60.88v60.55Z" stroke-width=".63"/><path d="M892.5 30.604 944.997.332 997.5 30.604 944.997 60.88 892.5 30.604ZM997.5 30.604v60.55l52.497 30.277v-60.55L997.5 30.604ZM1049.997 121.431l52.503-30.277v-60.55l-52.503 30.277v60.55Z" stroke-width=".63"/><path d="M997.5 30.604 1049.997.332l52.503 30.272-52.503 30.277L997.5 30.604ZM1102.5 30.604v60.55l52.497 30.277v-60.55L1102.5 30.604ZM1154.997 121.431l52.503-30.277v-60.55l-52.503 30.277v60.55Z" stroke-width=".63"/><path d="M1102.5 30.604 1154.997.332l52.503 30.272-52.503 30.277-52.497-30.277ZM1312.5 30.604v60.55l52.497 30.277v-60.55L1312.5 30.604ZM1364.997 121.431l52.503-30.277v-60.55l-52.503 30.277v60.55Z" stroke-width=".63"/><path d="M1312.5 30.604 1364.997.332l52.503 30.272-52.503 30.277-52.497-30.277ZM1417.5 30.604v60.55l52.497 30.277v-60.55L1417.5 30.604ZM1469.997 121.431l52.503-30.277v-60.55l-52.503 30.277v60.55Z" stroke-width=".63"/><path d="M1417.5 30.604 1469.997.332l52.503 30.272-52.503 30.277-52.497-30.277ZM1522.5 30.604v60.55l52.497 30.277v-60.55L1522.5 30.604ZM1574.997 121.431l52.503-30.277v-60.55l-52.503 30.277v60.55Z" stroke-width=".63"/><path d="M1522.5 30.604 1574.997.332l52.503 30.272-52.503 30.277-52.497-30.277ZM1627.5 30.604v60.55l52.497 30.277v-60.55L1627.5 30.604ZM1679.997 121.431l52.503-30.277v-60.55l-52.503 30.277v60.55Z" stroke-width=".63"/><path d="M1627.5 30.604 1679.997.332l52.503 30.272-52.503 30.277-52.497-30.277ZM1942.5 30.604v60.55l52.497 30.277v-60.55L1942.5 30.604ZM1994.997 121.431l52.503-30.277v-60.55l-52.503 30.277v60.55Z" stroke-width=".63"/><path d="M1942.5 30.604 1994.997.332l52.503 30.272-52.503 30.277-52.497-30.277ZM105 121.604v60.55l52.497 30.277v-60.55L105 121.604ZM157.497 212.431 210 182.154v-60.55l-52.503 30.277v60.55Z" stroke-width=".63"/><path d="m105 121.604 52.497-30.272L210 121.604l-52.503 30.277L105 121.604ZM210 121.604v60.55l52.497 30.277v-60.55L210 121.604ZM262.497 212.431 315 182.154v-60.55l-52.503 30.277v60.55Z" stroke-width=".63"/><path d="m210 121.604 52.497-30.272L315 121.604l-52.503 30.277L210 121.604ZM420 121.604v60.55l52.497 30.277v-60.55L420 121.604ZM472.497 212.431 525 182.154v-60.55l-52.503 30.277v60.55Z" stroke-width=".63"/><path d="m420 121.604 52.497-30.272L525 121.604l-52.503 30.277L420 121.604ZM525 121.604v60.55l52.497 30.277v-60.55L525 121.604ZM577.497 212.431 630 182.154v-60.55l-52.503 30.277v60.55Z" stroke-width=".63"/><path d="m525 121.604 52.497-30.272L630 121.604l-52.503 30.277L525 121.604ZM630 121.604v60.55l52.497 30.277v-60.55L630 121.604ZM682.497 212.431 735 182.154v-60.55l-52.503 30.277v60.55Z" stroke-width=".63"/><path d="m630 121.604 52.497-30.272L735 121.604l-52.503 30.277L630 121.604ZM945 121.604v60.55l52.497 30.277v-60.55L945 121.604ZM997.497 212.431 1050 182.154v-60.55l-52.503 30.277v60.55Z" stroke-width=".63"/><path d="m945 121.604 52.497-30.272L1050 121.604l-52.503 30.277L945 121.604ZM1050 121.604v60.55l52.497 30.277v-60.55L1050 121.604ZM1102.497 212.431 1155 182.154v-60.55l-52.503 30.277v60.55Z" stroke-width=".63"/><path d="m1050 121.604 52.497-30.272L1155 121.604l-52.503 30.277L1050 121.604ZM1155 121.604v60.55l52.497 30.277v-60.55L1155 121.604ZM1207.497 212.431 1260 182.154v-60.55l-52.503 30.277v60.55Z" stroke-width=".63"/><path d="m1155 121.604 52.497-30.272L1260 121.604l-52.503 30.277L1155 121.604ZM1260 121.604v60.55l52.497 30.277v-60.55L1260 121.604ZM1312.497 212.431 1365 182.154v-60.55l-52.503 30.277v60.55Z" stroke-width=".63"/><path d="m1260 121.604 52.497-30.272L1365 121.604l-52.503 30.277L1260 121.604ZM1365 121.604v60.55l52.497 30.277v-60.55L1365 121.604ZM1417.497 212.431 1470 182.154v-60.55l-52.503 30.277v60.55Z" stroke-width=".63"/><path d="m1365 121.604 52.497-30.272L1470 121.604l-52.503 30.277L1365 121.604ZM1470 121.604v60.55l52.497 30.277v-60.55L1470 121.604ZM1522.497 212.431 1575 182.154v-60.55l-52.503 30.277v60.55Z" stroke-width=".63"/><path d="m1470 121.604 52.497-30.272L1575 121.604l-52.503 30.277L1470 121.604ZM1575 121.604v60.55l52.497 30.277v-60.55L1575 121.604ZM1627.497 212.431 1680 182.154v-60.55l-52.503 30.277v60.55Z" stroke-width=".63"/><path d="m1575 121.604 52.497-30.272L1680 121.604l-52.503 30.277L1575 121.604ZM1680 121.604v60.55l52.497 30.277v-60.55L1680 121.604ZM1732.497 212.431 1785 182.154v-60.55l-52.503 30.277v60.55Z" stroke-width=".63"/><path d="m1680 121.604 52.497-30.272L1785 121.604l-52.503 30.277L1680 121.604ZM1785 121.604v60.55l52.497 30.277v-60.55L1785 121.604ZM1837.497 212.431 1890 182.154v-60.55l-52.503 30.277v60.55Z" stroke-width=".63"/><path d="m1785 121.604 52.497-30.272L1890 121.604l-52.503 30.277L1785 121.604ZM367.5 212.604v60.55l52.497 30.277v-60.55L367.5 212.604ZM419.997 303.431l52.503-30.277v-60.55l-52.503 30.277v60.55Z" stroke-width=".63"/><path d="m367.5 212.604 52.497-30.272 52.503 30.272-52.503 30.277-52.497-30.277ZM472.5 212.604v60.55l52.497 30.277v-60.55L472.5 212.604ZM524.997 303.431l52.503-30.277v-60.55l-52.503 30.277v60.55Z" stroke-width=".63"/><path d="m472.5 212.604 52.497-30.272 52.503 30.272-52.503 30.277-52.497-30.277ZM577.5 212.604v60.55l52.497 30.277v-60.55L577.5 212.604ZM629.997 303.431l52.503-30.277v-60.55l-52.503 30.277v60.55Z" stroke-width=".63"/><path d="m577.5 212.604 52.497-30.272 52.503 30.272-52.503 30.277-52.497-30.277ZM787.5 212.604v60.55l52.497 30.277v-60.55L787.5 212.604ZM839.997 303.431l52.503-30.277v-60.55l-52.503 30.277v60.55Z" stroke-width=".63"/><path d="m787.5 212.604 52.497-30.272 52.503 30.272-52.503 30.277-52.497-30.277ZM997.5 212.604v60.55l52.497 30.277v-60.55L997.5 212.604ZM1049.997 303.431l52.503-30.277v-60.55l-52.503 30.277v60.55Z" stroke-width=".63"/><path d="m997.5 212.604 52.497-30.272 52.503 30.272-52.503 30.277-52.497-30.277ZM1102.5 212.604v60.55l52.497 30.277v-60.55l-52.497-30.277ZM1154.997 303.431l52.503-30.277v-60.55l-52.503 30.277v60.55Z" stroke-width=".63"/><path d="m1102.5 212.604 52.497-30.272 52.503 30.272-52.503 30.277-52.497-30.277ZM1207.5 212.604v60.55l52.497 30.277v-60.55l-52.497-30.277ZM1259.997 303.431l52.503-30.277v-60.55l-52.503 30.277v60.55Z" stroke-width=".63"/><path d="m1207.5 212.604 52.497-30.272 52.503 30.272-52.503 30.277-52.497-30.277ZM1312.5 212.604v60.55l52.497 30.277v-60.55l-52.497-30.277ZM1364.997 303.431l52.503-30.277v-60.55l-52.503 30.277v60.55Z" stroke-width=".63"/><path d="m1312.5 212.604 52.497-30.272 52.503 30.272-52.503 30.277-52.497-30.277ZM1417.5 212.604v60.55l52.497 30.277v-60.55l-52.497-30.277ZM1469.997 303.431l52.503-30.277v-60.55l-52.503 30.277v60.55Z" stroke-width=".63"/><path d="m1417.5 212.604 52.497-30.272 52.503 30.272-52.503 30.277-52.497-30.277ZM1522.5 212.604v60.55l52.497 30.277v-60.55l-52.497-30.277ZM1574.997 303.431l52.503-30.277v-60.55l-52.503 30.277v60.55Z" stroke-width=".63"/><path d="m1522.5 212.604 52.497-30.272 52.503 30.272-52.503 30.277-52.497-30.277ZM1627.5 212.604v60.55l52.497 30.277v-60.55l-52.497-30.277ZM1679.997 303.431l52.503-30.277v-60.55l-52.503 30.277v60.55Z" stroke-width=".63"/><path d="m1627.5 212.604 52.497-30.272 52.503 30.272-52.503 30.277-52.497-30.277ZM1732.5 212.604v60.55l52.497 30.277v-60.55l-52.497-30.277ZM1784.997 303.431l52.503-30.277v-60.55l-52.503 30.277v60.55Z" stroke-width=".63"/><path d="m1732.5 212.604 52.497-30.272 52.503 30.272-52.503 30.277-52.497-30.277ZM1837.5 212.604v60.55l52.497 30.277v-60.55l-52.497-30.277ZM1889.997 303.431l52.503-30.277v-60.55l-52.503 30.277v60.55Z" stroke-width=".63"/><path d="m1837.5 212.604 52.497-30.272 52.503 30.272-52.503 30.277-52.497-30.277ZM0 303.604v60.55l52.497 30.277v-60.55L0 303.604ZM52.497 394.431 105 364.154v-60.55L52.497 333.88v60.55Z" stroke-width=".63"/><path d="m0 303.604 52.497-30.272L105 303.604 52.497 333.88 0 303.604ZM105 303.604v60.55l52.497 30.277v-60.55L105 303.604ZM157.497 394.431 210 364.154v-60.55l-52.503 30.277v60.55Z" stroke-width=".63"/><path d="m105 303.604 52.497-30.272L210 303.604l-52.503 30.277L105 303.604ZM420 303.604v60.55l52.497 30.277v-60.55L420 303.604ZM472.497 394.431 525 364.154v-60.55l-52.503 30.277v60.55Z" stroke-width=".63"/><path d="m420 303.604 52.497-30.272L525 303.604l-52.503 30.277L420 303.604ZM525 303.604v60.55l52.497 30.277v-60.55L525 303.604ZM577.497 394.431 630 364.154v-60.55l-52.503 30.277v60.55Z" stroke-width=".63"/><path d="m525 303.604 52.497-30.272L630 303.604l-52.503 30.277L525 303.604ZM735 303.604v60.55l52.497 30.277v-60.55L735 303.604ZM787.497 394.431 840 364.154v-60.55l-52.503 30.277v60.55Z" stroke-width=".63"/><path d="m735 303.604 52.497-30.272L840 303.604l-52.503 30.277L735 303.604ZM840 303.604v60.55l52.497 30.277v-60.55L840 303.604ZM892.497 394.431 945 364.154v-60.55l-52.503 30.277v60.55Z" stroke-width=".63"/><path d="m840 303.604 52.497-30.272L945 303.604l-52.503 30.277L840 303.604ZM945 303.604v60.55l52.497 30.277v-60.55L945 303.604ZM997.497 394.431 1050 364.154v-60.55l-52.503 30.277v60.55Z" stroke-width=".63"/><path d="m945 303.604 52.497-30.272L1050 303.604l-52.503 30.277L945 303.604ZM1050 303.604v60.55l52.497 30.277v-60.55L1050 303.604ZM1102.497 394.431 1155 364.154v-60.55l-52.503 30.277v60.55Z" stroke-width=".63"/><path d="m1050 303.604 52.497-30.272L1155 303.604l-52.503 30.277L1050 303.604ZM1155 303.604v60.55l52.497 30.277v-60.55L1155 303.604ZM1207.497 394.431 1260 364.154v-60.55l-52.503 30.277v60.55Z" stroke-width=".63"/><path d="m1155 303.604 52.497-30.272L1260 303.604l-52.503 30.277L1155 303.604ZM1260 303.604v60.55l52.497 30.277v-60.55L1260 303.604ZM1312.497 394.431 1365 364.154v-60.55l-52.503 30.277v60.55Z" stroke-width=".63"/><path d="m1260 303.604 52.497-30.272L1365 303.604l-52.503 30.277L1260 303.604ZM1470 303.604v60.55l52.497 30.277v-60.55L1470 303.604ZM1522.497 394.431 1575 364.154v-60.55l-52.503 30.277v60.55Z" stroke-width=".63"/><path d="m1470 303.604 52.497-30.272L1575 303.604l-52.503 30.277L1470 303.604ZM1575 303.604v60.55l52.497 30.277v-60.55L1575 303.604ZM1627.497 394.431 1680 364.154v-60.55l-52.503 30.277v60.55Z" stroke-width=".63"/><path d="m1575 303.604 52.497-30.272L1680 303.604l-52.503 30.277L1575 303.604ZM1680 303.604v60.55l52.497 30.277v-60.55L1680 303.604ZM1732.497 394.431 1785 364.154v-60.55l-52.503 30.277v60.55Z" stroke-width=".63"/><path d="m1680 303.604 52.497-30.272L1785 303.604l-52.503 30.277L1680 303.604ZM1890 303.604v60.55l52.497 30.277v-60.55L1890 303.604ZM1942.497 394.431 1995 364.154v-60.55l-52.503 30.277v60.55Z" stroke-width=".63"/><path d="m1890 303.604 52.497-30.272L1995 303.604l-52.503 30.277L1890 303.604ZM52.5 394.604v60.55l52.497 30.277v-60.55L52.5 394.604ZM104.997 485.431l52.503-30.277v-60.55l-52.503 30.277v60.55Z" stroke-width=".63"/><path d="m52.5 394.604 52.497-30.272 52.503 30.272-52.503 30.277L52.5 394.604ZM367.5 394.604v60.55l52.497 30.277v-60.55L367.5 394.604ZM419.997 485.431l52.503-30.277v-60.55l-52.503 30.277v60.55Z" stroke-width=".63"/><path d="m367.5 394.604 52.497-30.272 52.503 30.272-52.503 30.277-52.497-30.277ZM472.5 394.604v60.55l52.497 30.277v-60.55L472.5 394.604ZM524.997 485.431l52.503-30.277v-60.55l-52.503 30.277v60.55Z" stroke-width=".63"/><path d="m472.5 394.604 52.497-30.272 52.503 30.272-52.503 30.277-52.497-30.277ZM577.5 394.604v60.55l52.497 30.277v-60.55L577.5 394.604ZM629.997 485.431l52.503-30.277v-60.55l-52.503 30.277v60.55Z" stroke-width=".63"/><path d="m577.5 394.604 52.497-30.272 52.503 30.272-52.503 30.277-52.497-30.277ZM682.5 394.604v60.55l52.497 30.277v-60.55L682.5 394.604ZM734.997 485.431l52.503-30.277v-60.55l-52.503 30.277v60.55Z" stroke-width=".63"/><path d="m682.5 394.604 52.497-30.272 52.503 30.272-52.503 30.277-52.497-30.277ZM997.5 394.604v60.55l52.497 30.277v-60.55L997.5 394.604ZM1049.997 485.431l52.503-30.277v-60.55l-52.503 30.277v60.55Z" stroke-width=".63"/><path d="m997.5 394.604 52.497-30.272 52.503 30.272-52.503 30.277-52.497-30.277ZM1102.5 394.604v60.55l52.497 30.277v-60.55l-52.497-30.277ZM1154.997 485.431l52.503-30.277v-60.55l-52.503 30.277v60.55Z" stroke-width=".63"/><path d="m1102.5 394.604 52.497-30.272 52.503 30.272-52.503 30.277-52.497-30.277ZM1207.5 394.604v60.55l52.497 30.277v-60.55l-52.497-30.277ZM1259.997 485.431l52.503-30.277v-60.55l-52.503 30.277v60.55Z" stroke-width=".63"/><path d="m1207.5 394.604 52.497-30.272 52.503 30.272-52.503 30.277-52.497-30.277ZM1312.5 394.604v60.55l52.497 30.277v-60.55l-52.497-30.277ZM1364.997 485.431l52.503-30.277v-60.55l-52.503 30.277v60.55Z" stroke-width=".63"/><path d="m1312.5 394.604 52.497-30.272 52.503 30.272-52.503 30.277-52.497-30.277ZM1417.5 394.604v60.55l52.497 30.277v-60.55l-52.497-30.277ZM1469.997 485.431l52.503-30.277v-60.55l-52.503 30.277v60.55Z" stroke-width=".63"/><path d="m1417.5 394.604 52.497-30.272 52.503 30.272-52.503 30.277-52.497-30.277ZM1522.5 394.604v60.55l52.497 30.277v-60.55l-52.497-30.277ZM1574.997 485.431l52.503-30.277v-60.55l-52.503 30.277v60.55Z" stroke-width=".63"/><path d="m1522.5 394.604 52.497-30.272 52.503 30.272-52.503 30.277-52.497-30.277ZM1732.5 394.604v60.55l52.497 30.277v-60.55l-52.497-30.277ZM1784.997 485.431l52.503-30.277v-60.55l-52.503 30.277v60.55Z" stroke-width=".63"/><path d="m1732.5 394.604 52.497-30.272 52.503 30.272-52.503 30.277-52.497-30.277ZM1837.5 394.604v60.55l52.497 30.277v-60.55l-52.497-30.277ZM1889.997 485.431l52.503-30.277v-60.55l-52.503 30.277v60.55Z" stroke-width=".63"/><path d="m1837.5 394.604 52.497-30.272 52.503 30.272-52.503 30.277-52.497-30.277ZM1942.5 394.604v60.55l52.497 30.277v-60.55l-52.497-30.277ZM1994.997 485.431l52.503-30.277v-60.55l-52.503 30.277v60.55Z" stroke-width=".63"/><path d="m1942.5 394.604 52.497-30.272 52.503 30.272-52.503 30.277-52.497-30.277ZM0 485.604v60.55l52.497 30.277v-60.55L0 485.604ZM52.497 576.431 105 546.154v-60.55L52.497 515.88v60.55Z" stroke-width=".63"/><path d="m0 485.604 52.497-30.272L105 485.604 52.497 515.88 0 485.604ZM525 485.604v60.55l52.497 30.277v-60.55L525 485.604ZM577.497 576.431 630 546.154v-60.55l-52.503 30.277v60.55Z" stroke-width=".63"/><path d="m525 485.604 52.497-30.272L630 485.604l-52.503 30.277L525 485.604ZM630 485.604v60.55l52.497 30.277v-60.55L630 485.604ZM682.497 576.431 735 546.154v-60.55l-52.503 30.277v60.55Z" stroke-width=".63"/><path d="m630 485.604 52.497-30.272L735 485.604l-52.503 30.277L630 485.604ZM735 485.604v60.55l52.497 30.277v-60.55L735 485.604ZM787.497 576.431 840 546.154v-60.55l-52.503 30.277v60.55Z" stroke-width=".63"/><path d="m735 485.604 52.497-30.272L840 485.604l-52.503 30.277L735 485.604ZM840 485.604v60.55l52.497 30.277v-60.55L840 485.604ZM892.497 576.431 945 546.154v-60.55l-52.503 30.277v60.55Z" stroke-width=".63"/><path d="m840 485.604 52.497-30.272L945 485.604l-52.503 30.277L840 485.604ZM945 485.604v60.55l52.497 30.277v-60.55L945 485.604ZM997.497 576.431 1050 546.154v-60.55l-52.503 30.277v60.55Z" stroke-width=".63"/><path d="m945 485.604 52.497-30.272L1050 485.604l-52.503 30.277L945 485.604ZM1155 485.604v60.55l52.497 30.277v-60.55L1155 485.604ZM1207.497 576.431 1260 546.154v-60.55l-52.503 30.277v60.55Z" stroke-width=".63"/><path d="m1155 485.604 52.497-30.272L1260 485.604l-52.503 30.277L1155 485.604ZM1365 485.604v60.55l52.497 30.277v-60.55L1365 485.604ZM1417.497 576.431 1470 546.154v-60.55l-52.503 30.277v60.55Z" stroke-width=".63"/><path d="m1365 485.604 52.497-30.272L1470 485.604l-52.503 30.277L1365 485.604ZM1575 485.604v60.55l52.497 30.277v-60.55L1575 485.604ZM1627.497 576.431 1680 546.154v-60.55l-52.503 30.277v60.55Z" stroke-width=".63"/><path d="m1575 485.604 52.497-30.272L1680 485.604l-52.503 30.277L1575 485.604ZM1680 485.604v60.55l52.497 30.277v-60.55L1680 485.604ZM1732.497 576.431 1785 546.154v-60.55l-52.503 30.277v60.55Z" stroke-width=".63"/><path d="m1680 485.604 52.497-30.272L1785 485.604l-52.503 30.277L1680 485.604ZM1785 485.604v60.55l52.497 30.277v-60.55L1785 485.604ZM1837.497 576.431 1890 546.154v-60.55l-52.503 30.277v60.55Z" stroke-width=".63"/><path d="m1785 485.604 52.497-30.272L1890 485.604l-52.503 30.277L1785 485.604ZM1890 485.604v60.55l52.497 30.277v-60.55L1890 485.604ZM1942.497 576.431 1995 546.154v-60.55l-52.503 30.277v60.55Z" stroke-width=".63"/><path d="m1890 485.604 52.497-30.272L1995 485.604l-52.503 30.277L1890 485.604ZM52.5 576.604v60.55l52.497 30.277v-60.55L52.5 576.604ZM104.997 667.431l52.503-30.277v-60.55l-52.503 30.277v60.55Z" stroke-width=".63"/><path d="m52.5 576.604 52.497-30.272 52.503 30.272-52.503 30.277L52.5 576.604ZM157.5 576.604v60.55l52.497 30.277v-60.55L157.5 576.604ZM209.997 667.431l52.503-30.277v-60.55l-52.503 30.277v60.55Z" stroke-width=".63"/><path d="m157.5 576.604 52.497-30.272 52.503 30.272-52.503 30.277-52.497-30.277ZM472.5 576.604v60.55l52.497 30.277v-60.55L472.5 576.604ZM524.997 667.431l52.503-30.277v-60.55l-52.503 30.277v60.55Z" stroke-width=".63"/><path d="m472.5 576.604 52.497-30.272 52.503 30.272-52.503 30.277-52.497-30.277ZM577.5 576.604v60.55l52.497 30.277v-60.55L577.5 576.604ZM629.997 667.431l52.503-30.277v-60.55l-52.503 30.277v60.55Z" stroke-width=".63"/><path d="m577.5 576.604 52.497-30.272 52.503 30.272-52.503 30.277-52.497-30.277ZM682.5 576.604v60.55l52.497 30.277v-60.55L682.5 576.604ZM734.997 667.431l52.503-30.277v-60.55l-52.503 30.277v60.55Z" stroke-width=".63"/><path d="m682.5 576.604 52.497-30.272 52.503 30.272-52.503 30.277-52.497-30.277ZM787.5 576.604v60.55l52.497 30.277v-60.55L787.5 576.604ZM839.997 667.431l52.503-30.277v-60.55l-52.503 30.277v60.55Z" stroke-width=".63"/><path d="m787.5 576.604 52.497-30.272 52.503 30.272-52.503 30.277-52.497-30.277ZM892.5 576.604v60.55l52.497 30.277v-60.55L892.5 576.604ZM944.997 667.431l52.503-30.277v-60.55l-52.503 30.277v60.55Z" stroke-width=".63"/><path d="m892.5 576.604 52.497-30.272 52.503 30.272-52.503 30.277-52.497-30.277ZM997.5 576.604v60.55l52.497 30.277v-60.55L997.5 576.604ZM1049.997 667.431l52.503-30.277v-60.55l-52.503 30.277v60.55Z" stroke-width=".63"/><path d="m997.5 576.604 52.497-30.272 52.503 30.272-52.503 30.277-52.497-30.277ZM1102.5 576.604v60.55l52.497 30.277v-60.55l-52.497-30.277ZM1154.997 667.431l52.503-30.277v-60.55l-52.503 30.277v60.55Z" stroke-width=".63"/><path d="m1102.5 576.604 52.497-30.272 52.503 30.272-52.503 30.277-52.497-30.277ZM1207.5 576.604v60.55l52.497 30.277v-60.55l-52.497-30.277ZM1259.997 667.431l52.503-30.277v-60.55l-52.503 30.277v60.55Z" stroke-width=".63"/><path d="m1207.5 576.604 52.497-30.272 52.503 30.272-52.503 30.277-52.497-30.277ZM1312.5 576.604v60.55l52.497 30.277v-60.55l-52.497-30.277ZM1364.997 667.431l52.503-30.277v-60.55l-52.503 30.277v60.55Z" stroke-width=".63"/><path d="m1312.5 576.604 52.497-30.272 52.503 30.272-52.503 30.277-52.497-30.277ZM1417.5 576.604v60.55l52.497 30.277v-60.55l-52.497-30.277ZM1469.997 667.431l52.503-30.277v-60.55l-52.503 30.277v60.55Z" stroke-width=".63"/><path d="m1417.5 576.604 52.497-30.272 52.503 30.272-52.503 30.277-52.497-30.277ZM1522.5 576.604v60.55l52.497 30.277v-60.55l-52.497-30.277ZM1574.997 667.431l52.503-30.277v-60.55l-52.503 30.277v60.55Z" stroke-width=".63"/><path d="m1522.5 576.604 52.497-30.272 52.503 30.272-52.503 30.277-52.497-30.277ZM1627.5 576.604v60.55l52.497 30.277v-60.55l-52.497-30.277ZM1679.997 667.431l52.503-30.277v-60.55l-52.503 30.277v60.55Z" stroke-width=".63"/><path d="m1627.5 576.604 52.497-30.272 52.503 30.272-52.503 30.277-52.497-30.277ZM1837.5 576.604v60.55l52.497 30.277v-60.55l-52.497-30.277ZM1889.997 667.431l52.503-30.277v-60.55l-52.503 30.277v60.55Z" stroke-width=".63"/><path d="m1837.5 576.604 52.497-30.272 52.503 30.272-52.503 30.277-52.497-30.277ZM1942.5 576.604v60.55l52.497 30.277v-60.55l-52.497-30.277ZM1994.997 667.431l52.503-30.277v-60.55l-52.503 30.277v60.55Z" stroke-width=".63"/><path d="m1942.5 576.604 52.497-30.272 52.503 30.272-52.503 30.277-52.497-30.277ZM0 667.604v60.55l52.497 30.277v-60.55L0 667.604ZM52.497 758.431 105 728.154v-60.55L52.497 697.88v60.55Z" stroke-width=".63"/><path d="m0 667.604 52.497-30.272L105 667.604 52.497 697.88 0 667.604ZM105 667.604v60.55l52.497 30.277v-60.55L105 667.604ZM157.497 758.431 210 728.154v-60.55l-52.503 30.277v60.55Z" stroke-width=".63"/><path d="m105 667.604 52.497-30.272L210 667.604l-52.503 30.277L105 667.604ZM210 667.604v60.55l52.497 30.277v-60.55L210 667.604ZM262.497 758.431 315 728.154v-60.55l-52.503 30.277v60.55Z" stroke-width=".63"/><path d="m210 667.604 52.497-30.272L315 667.604l-52.503 30.277L210 667.604ZM315 667.604v60.55l52.497 30.277v-60.55L315 667.604ZM367.497 758.431 420 728.154v-60.55l-52.503 30.277v60.55Z" stroke-width=".63"/><path d="m315 667.604 52.497-30.272L420 667.604l-52.503 30.277L315 667.604ZM420 667.604v60.55l52.497 30.277v-60.55L420 667.604ZM472.497 758.431 525 728.154v-60.55l-52.503 30.277v60.55Z" stroke-width=".63"/><path d="m420 667.604 52.497-30.272L525 667.604l-52.503 30.277L420 667.604ZM525 667.604v60.55l52.497 30.277v-60.55L525 667.604ZM577.497 758.431 630 728.154v-60.55l-52.503 30.277v60.55Z" stroke-width=".63"/><path d="m525 667.604 52.497-30.272L630 667.604l-52.503 30.277L525 667.604ZM945 667.604v60.55l52.497 30.277v-60.55L945 667.604ZM997.497 758.431 1050 728.154v-60.55l-52.503 30.277v60.55Z" stroke-width=".63"/><path d="m945 667.604 52.497-30.272L1050 667.604l-52.503 30.277L945 667.604ZM1050 667.604v60.55l52.497 30.277v-60.55L1050 667.604ZM1102.497 758.431 1155 728.154v-60.55l-52.503 30.277v60.55Z" stroke-width=".63"/><path d="m1050 667.604 52.497-30.272L1155 667.604l-52.503 30.277L1050 667.604ZM1155 667.604v60.55l52.497 30.277v-60.55L1155 667.604ZM1207.497 758.431 1260 728.154v-60.55l-52.503 30.277v60.55Z" stroke-width=".63"/><path d="m1155 667.604 52.497-30.272L1260 667.604l-52.503 30.277L1155 667.604ZM1260 667.604v60.55l52.497 30.277v-60.55L1260 667.604ZM1312.497 758.431 1365 728.154v-60.55l-52.503 30.277v60.55Z" stroke-width=".63"/><path d="m1260 667.604 52.497-30.272L1365 667.604l-52.503 30.277L1260 667.604ZM1470 667.604v60.55l52.497 30.277v-60.55L1470 667.604ZM1522.497 758.431 1575 728.154v-60.55l-52.503 30.277v60.55Z" stroke-width=".63"/><path d="m1470 667.604 52.497-30.272L1575 667.604l-52.503 30.277L1470 667.604ZM1575 667.604v60.55l52.497 30.277v-60.55L1575 667.604ZM1627.497 758.431 1680 728.154v-60.55l-52.503 30.277v60.55Z" stroke-width=".63"/><path d="m1575 667.604 52.497-30.272L1680 667.604l-52.503 30.277L1575 667.604ZM1680 667.604v60.55l52.497 30.277v-60.55L1680 667.604ZM1732.497 758.431 1785 728.154v-60.55l-52.503 30.277v60.55Z" stroke-width=".63"/><path d="m1680 667.604 52.497-30.272L1785 667.604l-52.503 30.277L1680 667.604ZM1785 667.604v60.55l52.497 30.277v-60.55L1785 667.604ZM1837.497 758.431 1890 728.154v-60.55l-52.503 30.277v60.55Z" stroke-width=".63"/><path d="m1785 667.604 52.497-30.272L1890 667.604l-52.503 30.277L1785 667.604ZM1890 667.604v60.55l52.497 30.277v-60.55L1890 667.604ZM1942.497 758.431 1995 728.154v-60.55l-52.503 30.277v60.55Z" stroke-width=".63"/><path d="m1890 667.604 52.497-30.272L1995 667.604l-52.503 30.277L1890 667.604ZM52.5 758.604v60.55l52.497 30.277v-60.55L52.5 758.604ZM104.997 849.431l52.503-30.277v-60.55l-52.503 30.277v60.55Z" stroke-width=".63"/><path d="m52.5 758.604 52.497-30.272 52.503 30.272-52.503 30.277L52.5 758.604ZM157.5 758.604v60.55l52.497 30.277v-60.55L157.5 758.604ZM209.997 849.431l52.503-30.277v-60.55l-52.503 30.277v60.55Z" stroke-width=".63"/><path d="m157.5 758.604 52.497-30.272 52.503 30.272-52.503 30.277-52.497-30.277ZM262.5 758.604v60.55l52.497 30.277v-60.55L262.5 758.604ZM314.997 849.431l52.503-30.277v-60.55l-52.503 30.277v60.55Z" stroke-width=".63"/><path d="m262.5 758.604 52.497-30.272 52.503 30.272-52.503 30.277-52.497-30.277ZM682.5 758.604v60.55l52.497 30.277v-60.55L682.5 758.604ZM734.997 849.431l52.503-30.277v-60.55l-52.503 30.277v60.55Z" stroke-width=".63"/><path d="m682.5 758.604 52.497-30.272 52.503 30.272-52.503 30.277-52.497-30.277ZM787.5 758.604v60.55l52.497 30.277v-60.55L787.5 758.604ZM839.997 849.431l52.503-30.277v-60.55l-52.503 30.277v60.55Z" stroke-width=".63"/><path d="m787.5 758.604 52.497-30.272 52.503 30.272-52.503 30.277-52.497-30.277ZM892.5 758.604v60.55l52.497 30.277v-60.55L892.5 758.604ZM944.997 849.431l52.503-30.277v-60.55l-52.503 30.277v60.55Z" stroke-width=".63"/><path d="m892.5 758.604 52.497-30.272 52.503 30.272-52.503 30.277-52.497-30.277ZM997.5 758.604v60.55l52.497 30.277v-60.55L997.5 758.604ZM1049.997 849.431l52.503-30.277v-60.55l-52.503 30.277v60.55Z" stroke-width=".63"/><path d="m997.5 758.604 52.497-30.272 52.503 30.272-52.503 30.277-52.497-30.277ZM1102.5 758.604v60.55l52.497 30.277v-60.55l-52.497-30.277ZM1154.997 849.431l52.503-30.277v-60.55l-52.503 30.277v60.55Z" stroke-width=".63"/><path d="m1102.5 758.604 52.497-30.272 52.503 30.272-52.503 30.277-52.497-30.277ZM1207.5 758.604v60.55l52.497 30.277v-60.55l-52.497-30.277ZM1259.997 849.431l52.503-30.277v-60.55l-52.503 30.277v60.55Z" stroke-width=".63"/><path d="m1207.5 758.604 52.497-30.272 52.503 30.272-52.503 30.277-52.497-30.277ZM1522.5 758.604v60.55l52.497 30.277v-60.55l-52.497-30.277ZM1574.997 849.431l52.503-30.277v-60.55l-52.503 30.277v60.55Z" stroke-width=".63"/><path d="m1522.5 758.604 52.497-30.272 52.503 30.272-52.503 30.277-52.497-30.277ZM1627.5 758.604v60.55l52.497 30.277v-60.55l-52.497-30.277ZM1679.997 849.431l52.503-30.277v-60.55l-52.503 30.277v60.55Z" stroke-width=".63"/><path d="m1627.5 758.604 52.497-30.272 52.503 30.272-52.503 30.277-52.497-30.277ZM1732.5 758.604v60.55l52.497 30.277v-60.55l-52.497-30.277ZM1784.997 849.431l52.503-30.277v-60.55l-52.503 30.277v60.55Z" stroke-width=".63"/><path d="m1732.5 758.604 52.497-30.272 52.503 30.272-52.503 30.277-52.497-30.277ZM1837.5 758.604v60.55l52.497 30.277v-60.55l-52.497-30.277ZM1889.997 849.431l52.503-30.277v-60.55l-52.503 30.277v60.55Z" stroke-width=".63"/><path d="m1837.5 758.604 52.497-30.272 52.503 30.272-52.503 30.277-52.497-30.277ZM1942.5 758.604v60.55l52.497 30.277v-60.55l-52.497-30.277ZM1994.997 849.431l52.503-30.277v-60.55l-52.503 30.277v60.55Z" stroke-width=".63"/><path d="m1942.5 758.604 52.497-30.272 52.503 30.272-52.503 30.277-52.497-30.277ZM0 849.604v60.55l52.497 30.277v-60.55L0 849.604ZM52.497 940.431 105 910.154v-60.55L52.497 879.88v60.55Z" stroke-width=".63"/><path d="m0 849.604 52.497-30.272L105 849.604 52.497 879.88 0 849.604ZM210 849.604v60.55l52.497 30.277v-60.55L210 849.604ZM262.497 940.431 315 910.154v-60.55l-52.503 30.277v60.55Z" stroke-width=".63"/><path d="m210 849.604 52.497-30.272L315 849.604l-52.503 30.277L210 849.604ZM420 849.604v60.55l52.497 30.277v-60.55L420 849.604ZM472.497 940.431 525 910.154v-60.55l-52.503 30.277v60.55Z" stroke-width=".63"/><path d="m420 849.604 52.497-30.272L525 849.604l-52.503 30.277L420 849.604ZM525 849.604v60.55l52.497 30.277v-60.55L525 849.604ZM577.497 940.431 630 910.154v-60.55l-52.503 30.277v60.55Z" stroke-width=".63"/><path d="m525 849.604 52.497-30.272L630 849.604l-52.503 30.277L525 849.604ZM630 849.604v60.55l52.497 30.277v-60.55L630 849.604ZM682.497 940.431 735 910.154v-60.55l-52.503 30.277v60.55Z" stroke-width=".63"/><path d="m630 849.604 52.497-30.272L735 849.604l-52.503 30.277L630 849.604ZM735 849.604v60.55l52.497 30.277v-60.55L735 849.604ZM787.497 940.431 840 910.154v-60.55l-52.503 30.277v60.55Z" stroke-width=".63"/><path d="m735 849.604 52.497-30.272L840 849.604l-52.503 30.277L735 849.604ZM945 849.604v60.55l52.497 30.277v-60.55L945 849.604ZM997.497 940.431 1050 910.154v-60.55l-52.503 30.277v60.55Z" stroke-width=".63"/><path d="m945 849.604 52.497-30.272L1050 849.604l-52.503 30.277L945 849.604ZM1050 849.604v60.55l52.497 30.277v-60.55L1050 849.604ZM1102.497 940.431 1155 910.154v-60.55l-52.503 30.277v60.55Z" stroke-width=".63"/><path d="m1050 849.604 52.497-30.272L1155 849.604l-52.503 30.277L1050 849.604ZM1680 849.604v60.55l52.497 30.277v-60.55L1680 849.604ZM1732.497 940.431 1785 910.154v-60.55l-52.503 30.277v60.55Z" stroke-width=".63"/><path d="m1680 849.604 52.497-30.272L1785 849.604l-52.503 30.277L1680 849.604ZM1785 849.604v60.55l52.497 30.277v-60.55L1785 849.604ZM1837.497 940.431 1890 910.154v-60.55l-52.503 30.277v60.55Z" stroke-width=".63"/><path d="m1785 849.604 52.497-30.272L1890 849.604l-52.503 30.277L1785 849.604ZM1890 849.604v60.55l52.497 30.277v-60.55L1890 849.604ZM1942.497 940.431 1995 910.154v-60.55l-52.503 30.277v60.55Z" stroke-width=".63"/><path d="m1890 849.604 52.497-30.272L1995 849.604l-52.503 30.277L1890 849.604ZM157.5 940.604v60.55l52.497 30.277v-60.55L157.5 940.604ZM209.997 1031.431l52.503-30.277v-60.55l-52.503 30.277v60.55Z" stroke-width=".63"/><path d="m157.5 940.604 52.497-30.272 52.503 30.272-52.503 30.277-52.497-30.277ZM262.5 940.604v60.55l52.497 30.277v-60.55L262.5 940.604ZM314.997 1031.431l52.503-30.277v-60.55l-52.503 30.277v60.55Z" stroke-width=".63"/><path d="m262.5 940.604 52.497-30.272 52.503 30.272-52.503 30.277-52.497-30.277ZM367.5 940.604v60.55l52.497 30.277v-60.55L367.5 940.604ZM419.997 1031.431l52.503-30.277v-60.55l-52.503 30.277v60.55Z" stroke-width=".63"/><path d="m367.5 940.604 52.497-30.272 52.503 30.272-52.503 30.277-52.497-30.277ZM577.5 940.604v60.55l52.497 30.277v-60.55L577.5 940.604ZM629.997 1031.431l52.503-30.277v-60.55l-52.503 30.277v60.55Z" stroke-width=".63"/><path d="m577.5 940.604 52.497-30.272 52.503 30.272-52.503 30.277-52.497-30.277ZM682.5 940.604v60.55l52.497 30.277v-60.55L682.5 940.604ZM734.997 1031.431l52.503-30.277v-60.55l-52.503 30.277v60.55Z" stroke-width=".63"/><path d="m682.5 940.604 52.497-30.272 52.503 30.272-52.503 30.277-52.497-30.277ZM787.5 940.604v60.55l52.497 30.277v-60.55L787.5 940.604ZM839.997 1031.431l52.503-30.277v-60.55l-52.503 30.277v60.55Z" stroke-width=".63"/><path d="m787.5 940.604 52.497-30.272 52.503 30.272-52.503 30.277-52.497-30.277ZM892.5 940.604v60.55l52.497 30.277v-60.55L892.5 940.604ZM944.997 1031.431l52.503-30.277v-60.55l-52.503 30.277v60.55Z" stroke-width=".63"/><path d="m892.5 940.604 52.497-30.272 52.503 30.272-52.503 30.277-52.497-30.277ZM1102.5 940.604v60.55l52.497 30.277v-60.55l-52.497-30.277ZM1154.997 1031.431l52.503-30.277v-60.55l-52.503 30.277v60.55Z" stroke-width=".63"/><path d="m1102.5 940.604 52.497-30.272 52.503 30.272-52.503 30.277-52.497-30.277ZM1207.5 940.604v60.55l52.497 30.277v-60.55l-52.497-30.277ZM1259.997 1031.431l52.503-30.277v-60.55l-52.503 30.277v60.55Z" stroke-width=".63"/><path d="m1207.5 940.604 52.497-30.272 52.503 30.272-52.503 30.277-52.497-30.277ZM1312.5 940.604v60.55l52.497 30.277v-60.55l-52.497-30.277ZM1364.997 1031.431l52.503-30.277v-60.55l-52.503 30.277v60.55Z" stroke-width=".63"/><path d="m1312.5 940.604 52.497-30.272 52.503 30.272-52.503 30.277-52.497-30.277ZM1417.5 940.604v60.55l52.497 30.277v-60.55l-52.497-30.277ZM1469.997 1031.431l52.503-30.277v-60.55l-52.503 30.277v60.55Z" stroke-width=".63"/><path d="m1417.5 940.604 52.497-30.272 52.503 30.272-52.503 30.277-52.497-30.277ZM1522.5 940.604v60.55l52.497 30.277v-60.55l-52.497-30.277ZM1574.997 1031.431l52.503-30.277v-60.55l-52.503 30.277v60.55Z" stroke-width=".63"/><path d="m1522.5 940.604 52.497-30.272 52.503 30.272-52.503 30.277-52.497-30.277ZM1627.5 940.604v60.55l52.497 30.277v-60.55l-52.497-30.277ZM1679.997 1031.431l52.503-30.277v-60.55l-52.503 30.277v60.55Z" stroke-width=".63"/><path d="m1627.5 940.604 52.497-30.272 52.503 30.272-52.503 30.277-52.497-30.277ZM1732.5 940.604v60.55l52.497 30.277v-60.55l-52.497-30.277ZM1784.997 1031.431l52.503-30.277v-60.55l-52.503 30.277v60.55Z" stroke-width=".63"/><path d="m1732.5 940.604 52.497-30.272 52.503 30.272-52.503 30.277-52.497-30.277ZM1837.5 940.604v60.55l52.497 30.277v-60.55l-52.497-30.277ZM1889.997 1031.431l52.503-30.277v-60.55l-52.503 30.277v60.55Z" stroke-width=".63"/><path d="m1837.5 940.604 52.497-30.272 52.503 30.272-52.503 30.277-52.497-30.277ZM1942.5 940.604v60.55l52.497 30.277v-60.55l-52.497-30.277ZM1994.997 1031.431l52.503-30.277v-60.55l-52.503 30.277v60.55Z" stroke-width=".63"/><path d="m1942.5 940.604 52.497-30.272 52.503 30.272-52.503 30.277-52.497-30.277Z" stroke-width=".63"/></g><defs><radialGradient id="a"><stop offset="50%" stop-color="#fff" stop-opacity="0.2"/><stop offset="1" stop-color="#fff" stop-opacity="1"/></radialGradient></defs></svg>