<svg width="21" height="20" viewBox="0 0 21 20" fill="none" xmlns="http://www.w3.org/2000/svg">
<path d="M10.0169 12.8231C8.65681 12.8231 7.52232 11.8603 7.25301 10.5811H2.72852C3.04833 14.301 6.16901 17.2197 9.96972 17.2197C13.7704 17.2197 16.8945 14.301 17.2109 10.5811H12.7807C12.5114 11.8637 11.3769 12.8231 10.0169 12.8231Z" fill="white"/>
<path d="M11.6328 17.0311C14.6491 16.3242 16.9417 13.7421 17.211 10.5811H15.4268C15.2484 13.4493 13.7436 15.8798 11.6328 17.0311Z" fill="#DFDFDF"/>
<path d="M11.6829 9.99798C11.6796 9.99798 11.6796 9.99798 11.6829 9.99798C11.6796 9.79263 11.6425 9.59737 11.5752 9.41559C11.3395 8.7827 10.7302 8.33496 10.0165 8.33496C9.30285 8.33496 8.69353 8.78606 8.45788 9.41559C8.39055 9.59737 8.35352 9.79263 8.35352 9.99798H8.35688C8.35688 10.2033 8.39391 10.3986 8.46124 10.5804C8.69689 11.2133 9.30622 11.661 10.0199 11.661C10.7336 11.661 11.3429 11.2099 11.5786 10.5804C11.6459 10.402 11.6829 10.2033 11.6829 9.99798Z" fill="white"/>
<path d="M10.0197 7.17728C11.3797 7.17728 12.5142 8.14008 12.7836 9.41932H17.308C16.9882 5.69604 13.8675 2.77734 10.0635 2.77734C6.2594 2.77734 3.14208 5.69604 2.82227 9.41596H7.25586C7.52518 8.13671 8.65967 7.17728 10.0197 7.17728Z" fill="#FF1C1C"/>
<path d="M15.4277 9.41637H17.3062C17.0301 6.20143 14.6602 3.58234 11.5664 2.93262C13.7142 4.06711 15.2459 6.52124 15.4277 9.41637Z" fill="#DF1818"/>
<path d="M10.0653 2.77662C13.8693 2.77662 16.99 5.69532 17.3065 9.41523H12.782C12.5127 8.13599 11.3782 7.17319 10.0181 7.17319C8.65809 7.17319 7.52361 8.13599 7.25429 9.41523H2.82406C3.14387 5.69532 6.26456 2.77662 10.0653 2.77662ZM11.5768 9.41523C11.6441 9.59702 11.6812 9.79227 11.6812 9.99763H11.6845C11.6845 10.203 11.6475 10.3982 11.5802 10.58C11.3445 11.2129 10.7352 11.6606 10.0215 11.6606C9.30782 11.6606 8.69849 11.2095 8.46284 10.58C8.39551 10.3982 8.35848 10.203 8.35848 9.99763H8.35511C8.35511 9.79227 8.39215 9.59702 8.45947 9.41523C8.69512 8.78234 9.30445 8.33461 10.0181 8.33461C10.7318 8.33461 11.3411 8.78571 11.5768 9.41523ZM9.971 17.222C6.16693 17.222 3.04624 14.3033 2.7298 10.5834H7.25429C7.52361 11.8626 8.65809 12.8254 10.0181 12.8254C11.3782 12.8254 12.5127 11.8626 12.782 10.5834H17.2156C16.8958 14.2999 13.7751 17.222 9.971 17.222ZM10.0181 1.38965C5.26473 1.38965 1.41016 5.24422 1.41016 9.99763C1.41016 14.751 5.26473 18.6056 10.0181 18.6056C14.7715 18.6056 18.6295 14.7544 18.6295 9.99763C18.6295 5.24085 14.7749 1.38965 10.0181 1.38965Z" fill="black"/>
</svg>
